<svg width="100" height="100" viewBox="0 0 100 100" fill="none" xmlns="http://www.w3.org/2000/svg">
<rect x="3.5" y="3.5" width="93" height="93" rx="13.5" stroke="black" stroke-width="7"/>
<path d="M54.3097 44.2756C54.196 43.1297 53.7083 42.2396 52.8466 41.6051C51.9848 40.9706 50.8153 40.6534 49.3381 40.6534C48.3343 40.6534 47.4867 40.7955 46.7955 41.0795C46.1042 41.3542 45.5739 41.7377 45.2045 42.2301C44.8447 42.7225 44.6648 43.2812 44.6648 43.9062C44.6458 44.4271 44.7547 44.8816 44.9915 45.2699C45.2377 45.6581 45.5739 45.9943 46 46.2784C46.4261 46.553 46.9186 46.7945 47.4773 47.0028C48.036 47.2017 48.6326 47.3722 49.267 47.5142L51.8807 48.1392C53.1496 48.4233 54.3144 48.8021 55.375 49.2756C56.4356 49.7491 57.3542 50.3314 58.1307 51.0227C58.9072 51.714 59.5085 52.5284 59.9347 53.4659C60.3703 54.4034 60.5928 55.4782 60.6023 56.6903C60.5928 58.4706 60.1383 60.0142 59.2386 61.321C58.3485 62.6184 57.0606 63.6269 55.375 64.3466C53.6989 65.0568 51.6771 65.4119 49.3097 65.4119C46.9612 65.4119 44.9157 65.0521 43.1733 64.3324C41.4403 63.6127 40.0862 62.5473 39.1108 61.1364C38.1449 59.7159 37.6383 57.9593 37.5909 55.8665H43.5426C43.6089 56.8419 43.8883 57.6562 44.3807 58.3097C44.8826 58.9536 45.5502 59.4413 46.3835 59.7727C47.2263 60.0947 48.178 60.2557 49.2386 60.2557C50.2803 60.2557 51.1847 60.1042 51.9517 59.8011C52.7282 59.4981 53.3295 59.0767 53.7557 58.5369C54.1818 57.9972 54.3949 57.3769 54.3949 56.6761C54.3949 56.0227 54.2008 55.4735 53.8125 55.0284C53.4337 54.5833 52.875 54.2045 52.1364 53.892C51.4072 53.5795 50.5123 53.2955 49.4517 53.0398L46.2841 52.2443C43.8314 51.6477 41.8949 50.715 40.4744 49.446C39.054 48.1771 38.3485 46.4678 38.358 44.3182C38.3485 42.5568 38.8172 41.018 39.7642 39.7017C40.7206 38.3854 42.0322 37.358 43.6989 36.6193C45.3655 35.8807 47.2595 35.5114 49.3807 35.5114C51.5398 35.5114 53.4242 35.8807 55.0341 36.6193C56.6534 37.358 57.9129 38.3854 58.8125 39.7017C59.7121 41.018 60.1761 42.5426 60.2045 44.2756H54.3097Z" fill="black"/>
</svg>
