<svg width="100" height="100" viewBox="0 0 100 100" fill="none" xmlns="http://www.w3.org/2000/svg">
<rect x="3.5" y="3.5" width="93" height="93" rx="13.5" stroke="black" stroke-width="7"/>
<path d="M32.2955 35.9091L38.1619 45.8239H38.3892L44.2841 35.9091H51.2301L42.3523 50.4545L51.429 65H44.3551L38.3892 55.071H38.1619L32.196 65H25.1506L34.2557 50.4545L25.321 35.9091H32.2955ZM70.9034 44.2756C70.7898 43.1297 70.3021 42.2396 69.4403 41.6051C68.5786 40.9706 67.4091 40.6534 65.9318 40.6534C64.928 40.6534 64.0805 40.7955 63.3892 41.0795C62.6979 41.3542 62.1676 41.7377 61.7983 42.2301C61.4384 42.7225 61.2585 43.2812 61.2585 43.9062C61.2396 44.4271 61.3485 44.8816 61.5852 45.2699C61.8314 45.6581 62.1676 45.9943 62.5938 46.2784C63.0199 46.553 63.5123 46.7945 64.071 47.0028C64.6297 47.2017 65.2263 47.3722 65.8608 47.5142L68.4744 48.1392C69.7434 48.4233 70.9081 48.8021 71.9688 49.2756C73.0294 49.7491 73.9479 50.3314 74.7244 51.0227C75.5009 51.714 76.1023 52.5284 76.5284 53.4659C76.964 54.4034 77.1866 55.4782 77.196 56.6903C77.1866 58.4706 76.732 60.0142 75.8324 61.321C74.9422 62.6184 73.6544 63.6269 71.9688 64.3466C70.2926 65.0568 68.2708 65.4119 65.9034 65.4119C63.5549 65.4119 61.5095 65.0521 59.767 64.3324C58.0341 63.6127 56.6799 62.5473 55.7045 61.1364C54.7386 59.7159 54.232 57.9593 54.1847 55.8665H60.1364C60.2027 56.8419 60.482 57.6562 60.9744 58.3097C61.4763 58.9536 62.1439 59.4413 62.9773 59.7727C63.8201 60.0947 64.7718 60.2557 65.8324 60.2557C66.8741 60.2557 67.7784 60.1042 68.5455 59.8011C69.322 59.4981 69.9233 59.0767 70.3494 58.5369C70.7756 57.9972 70.9886 57.3769 70.9886 56.6761C70.9886 56.0227 70.7945 55.4735 70.4062 55.0284C70.0275 54.5833 69.4688 54.2045 68.7301 53.892C68.0009 53.5795 67.1061 53.2955 66.0455 53.0398L62.8778 52.2443C60.4252 51.6477 58.4886 50.715 57.0682 49.446C55.6477 48.1771 54.9422 46.4678 54.9517 44.3182C54.9422 42.5568 55.411 41.018 56.358 39.7017C57.3144 38.3854 58.6259 37.358 60.2926 36.6193C61.9593 35.8807 63.8532 35.5114 65.9744 35.5114C68.1335 35.5114 70.018 35.8807 71.6278 36.6193C73.2472 37.358 74.5066 38.3854 75.4062 39.7017C76.3059 41.018 76.7699 42.5426 76.7983 44.2756H70.9034Z" fill="black"/>
</svg>
